<?xml version="1.0" encoding="UTF-8" standalone="no"?>
<!-- Created with Inkscape (http://www.inkscape.org/) -->
<svg
   xmlns:dc="http://purl.org/dc/elements/1.1/"
   xmlns:cc="http://creativecommons.org/ns#"
   xmlns:rdf="http://www.w3.org/1999/02/22-rdf-syntax-ns#"
   xmlns:svg="http://www.w3.org/2000/svg"
   xmlns="http://www.w3.org/2000/svg"
   xmlns:sodipodi="http://sodipodi.sourceforge.net/DTD/sodipodi-0.dtd"
   xmlns:inkscape="http://www.inkscape.org/namespaces/inkscape"
   width="243"
   height="333"
   id="svg5151"
   sodipodi:version="0.32"
   inkscape:version="0.46"
   version="1.0"
   sodipodi:docname="hearts-J.svg"
   inkscape:output_extension="org.inkscape.output.svg.inkscape">
  <defs
     id="defs5153">
    <inkscape:perspective
       sodipodi:type="inkscape:persp3d"
       inkscape:vp_x="0 : 166.5 : 1"
       inkscape:vp_y="0 : 1000 : 0"
       inkscape:vp_z="243 : 166.5 : 1"
       inkscape:persp3d-origin="121.5 : 111 : 1"
       id="perspective9" />
  </defs>
  <sodipodi:namedview
     id="base"
     pagecolor="#ffffff"
     bordercolor="#666666"
     borderopacity="1.0"
     gridtolerance="10000"
     guidetolerance="10"
     objecttolerance="10"
     inkscape:pageopacity="0.0"
     inkscape:pageshadow="2"
     inkscape:zoom="1.29"
     inkscape:cx="75.79357"
     inkscape:cy="146.94552"
     inkscape:document-units="px"
     inkscape:current-layer="layer1"
     showgrid="false"
     units="in"
     inkscape:window-width="924"
     inkscape:window-height="702"
     inkscape:window-x="20"
     inkscape:window-y="42" />
  <metadata
     id="metadata5156">
    <rdf:RDF>
      <cc:Work
         rdf:about="">
        <dc:format>image/svg+xml</dc:format>
        <dc:type
           rdf:resource="http://purl.org/dc/dcmitype/StillImage" />
      </cc:Work>
    </rdf:RDF>
  </metadata>
  <g
     inkscape:label="Layer 1"
     inkscape:groupmode="layer"
     id="layer1">
    <g
       id="g2478"
       transform="translate(3.671685,5.2294)"
       style="fill:#aa0000;fill-opacity:1">
      <g
         transform="translate(-568.79845,-266.02885)"
         inkscape:label="Layer 1"
         id="g2450"
         style="fill:#aa0000;fill-opacity:1">
        <path
           style="fill:#aa0000;fill-rule:evenodd;fill-opacity:1"
           id="path180"
           d="M 726.00532,328.34845 C 726.19587,328.34845 726.38306,328.38414 726.56755,328.45383 C 725.58415,331.72724 725.01518,335.60597 725.01518,339.76409 C 725.01518,345.42582 726.06962,350.56871 727.78897,354.37173 C 727.24188,355.09018 726.63925,355.4898 726.00531,355.4898 C 723.52879,355.4898 721.52057,349.41263 721.52057,341.91906 C 721.52057,334.42553 723.52879,328.34832 726.00531,328.34832 L 726.00532,328.34845 z" />
        <path
           style="fill:#aa0000;fill-rule:evenodd;fill-opacity:1"
           id="path182"
           d="M 736.95522,318.56343 C 740.24041,318.56343 743.15728,321.87219 744.99683,326.99256 C 742.70043,329.59196 740.40032,334.71636 738.98666,340.87066 L 743.43369,340.87066 C 745.27054,332.65668 748.95098,326.49671 751.67023,327.09965 C 754.39959,327.7043 755.12847,334.89179 753.29835,343.14954 C 751.46823,351.40797 747.77095,357.61478 745.04194,357.00974 C 743.15323,356.59127 742.22168,353.01923 742.43378,348.12209 L 737.84703,348.12209 C 737.3693,354.1235 738.27157,358.73182 740.32826,359.74412 C 739.27348,360.53293 738.13858,360.96454 736.9552,360.96454 C 731.39111,360.96454 726.87911,351.47121 726.87911,339.76396 C 726.87911,328.05674 731.39112,318.56339 736.9552,318.56339 L 736.95522,318.56343 z M 732.58697,337.55073 C 733.74476,337.55073 734.68373,339.50676 734.68373,341.91898 C 734.68373,344.3312 733.74476,346.28723 732.58697,346.28723 C 731.42917,346.28723 730.49021,344.3312 730.49021,341.91898 C 730.49021,339.50676 731.42917,337.55073 732.58697,337.55073 z M 742.63106,345.6176 C 742.71287,344.8877 742.81757,344.1393 742.9445,343.37506 L 738.47222,343.37506 C 738.33485,344.13526 738.21635,344.88333 738.11737,345.6176 L 742.63106,345.6176 L 742.63106,345.6176 z" />
        <path
           style="fill:#aa0000;fill-rule:evenodd;fill-opacity:1"
           id="path184"
           d="M 723.85053,358.16846 C 720.68755,362.90771 719.28028,368.29534 719.07458,374.12715 C 719.78798,374.94492 720.06169,374.73584 720.35593,374.5931 C 722.0662,368.09981 725.16252,362.91787 729.20892,358.6344 C 727.42256,358.47887 725.63654,358.32366 723.85053,358.16846 z" />
        <path
           style="fill:#aa0000;fill-rule:evenodd;fill-opacity:1"
           id="path186"
           d="M 751.92371,356.30464 C 753.20507,353.74194 754.48642,351.17923 755.76777,348.61653 C 758.66041,350.28505 760.48514,359.21516 761.82507,371.44793 C 761.98229,373.19961 761.51601,373.78204 760.42723,373.19523 C 757.92445,365.41082 755.75161,355.47341 751.9237,356.30462 L 751.92371,356.30464 z" />
        <path
           style="fill:#aa0000;fill-rule:evenodd;fill-opacity:1"
           id="path188"
           d="M 737.88812,361.83009 L 744.13497,362.00549 L 741.79951,378.78701 C 740.80634,379.89767 740.0475,379.83909 739.52264,378.6116 L 737.88812,361.83009 z" />
        <path
           style="fill:#aa0000;fill-rule:evenodd;fill-opacity:1"
           id="path190"
           d="M 717.73715,341.35515 L 624.24213,410.27353 C 623.82938,410.57787 623.74017,411.16502 624.04484,411.57844 L 624.04484,411.57844 C 624.34953,411.99153 624.93635,412.08041 625.34976,411.77573 L 718.84478,342.85775 C 719.2582,342.55306 719.34675,341.96592 719.04241,341.55284 L 719.04241,341.55284 C 718.73772,341.13941 718.15024,341.05087 717.73715,341.35521 L 717.73715,341.35515 z" />
        <path
           style="fill:#aa0000;fill-rule:evenodd;fill-opacity:1"
           id="path192"
           d="M 719.163,355.45673 L 635.11994,417.40811 C 634.70719,417.71246 634.61797,418.2996 634.92265,418.71303 L 634.92265,418.71303 C 635.22734,419.12612 635.81415,419.215 636.22757,418.91032 L 720.27063,356.95934 C 720.68406,356.65465 720.7726,356.06751 720.46826,355.65442 L 720.46826,355.65442 C 720.16357,355.24099 719.57609,355.15245 719.163,355.45679 L 719.163,355.45673 z" />
        <path
           style="fill:#aa0000;fill-rule:evenodd;fill-opacity:1"
           id="path194"
           d="M 716.36328,363.85589 L 627.5961,429.28942 C 627.18334,429.59377 627.09413,430.18091 627.39881,430.59433 L 627.39881,430.59433 C 627.7035,431.00742 628.29031,431.0963 628.70373,430.79162 L 717.47091,365.3585 C 717.88434,365.05381 717.97288,364.46666 717.66854,364.05358 L 717.66854,364.05358 C 717.36385,363.64015 716.77637,363.55161 716.36328,363.85595 L 716.36328,363.85589 z" />
      </g>
      <g
         id="g2460"
         inkscape:label="Layer 1"
         transform="matrix(-1,0,0,-1,804.45508,588.57005)"
         style="fill:#aa0000;fill-opacity:1">
        <path
           d="M 726.00532,328.34845 C 726.19587,328.34845 726.38306,328.38414 726.56755,328.45383 C 725.58415,331.72724 725.01518,335.60597 725.01518,339.76409 C 725.01518,345.42582 726.06962,350.56871 727.78897,354.37173 C 727.24188,355.09018 726.63925,355.4898 726.00531,355.4898 C 723.52879,355.4898 721.52057,349.41263 721.52057,341.91906 C 721.52057,334.42553 723.52879,328.34832 726.00531,328.34832 L 726.00532,328.34845 z"
           id="path2462"
           style="fill:#aa0000;fill-rule:evenodd;fill-opacity:1" />
        <path
           d="M 736.95522,318.56343 C 740.24041,318.56343 743.15728,321.87219 744.99683,326.99256 C 742.70043,329.59196 740.40032,334.71636 738.98666,340.87066 L 743.43369,340.87066 C 745.27054,332.65668 748.95098,326.49671 751.67023,327.09965 C 754.39959,327.7043 755.12847,334.89179 753.29835,343.14954 C 751.46823,351.40797 747.77095,357.61478 745.04194,357.00974 C 743.15323,356.59127 742.22168,353.01923 742.43378,348.12209 L 737.84703,348.12209 C 737.3693,354.1235 738.27157,358.73182 740.32826,359.74412 C 739.27348,360.53293 738.13858,360.96454 736.9552,360.96454 C 731.39111,360.96454 726.87911,351.47121 726.87911,339.76396 C 726.87911,328.05674 731.39112,318.56339 736.9552,318.56339 L 736.95522,318.56343 z M 732.58697,337.55073 C 733.74476,337.55073 734.68373,339.50676 734.68373,341.91898 C 734.68373,344.3312 733.74476,346.28723 732.58697,346.28723 C 731.42917,346.28723 730.49021,344.3312 730.49021,341.91898 C 730.49021,339.50676 731.42917,337.55073 732.58697,337.55073 z M 742.63106,345.6176 C 742.71287,344.8877 742.81757,344.1393 742.9445,343.37506 L 738.47222,343.37506 C 738.33485,344.13526 738.21635,344.88333 738.11737,345.6176 L 742.63106,345.6176 L 742.63106,345.6176 z"
           id="path2464"
           style="fill:#aa0000;fill-rule:evenodd;fill-opacity:1" />
        <path
           d="M 723.85053,358.16846 C 720.68755,362.90771 719.28028,368.29534 719.07458,374.12715 C 719.78798,374.94492 720.06169,374.73584 720.35593,374.5931 C 722.0662,368.09981 725.16252,362.91787 729.20892,358.6344 C 727.42256,358.47887 725.63654,358.32366 723.85053,358.16846 z"
           id="path2466"
           style="fill:#aa0000;fill-rule:evenodd;fill-opacity:1" />
        <path
           d="M 751.92371,356.30464 C 753.20507,353.74194 754.48642,351.17923 755.76777,348.61653 C 758.66041,350.28505 760.48514,359.21516 761.82507,371.44793 C 761.98229,373.19961 761.51601,373.78204 760.42723,373.19523 C 757.92445,365.41082 755.75161,355.47341 751.9237,356.30462 L 751.92371,356.30464 z"
           id="path2468"
           style="fill:#aa0000;fill-rule:evenodd;fill-opacity:1" />
        <path
           d="M 737.88812,361.83009 L 744.13497,362.00549 L 741.79951,378.78701 C 740.80634,379.89767 740.0475,379.83909 739.52264,378.6116 L 737.88812,361.83009 z"
           id="path2470"
           style="fill:#aa0000;fill-rule:evenodd;fill-opacity:1" />
        <path
           d="M 717.73715,341.35515 L 624.24213,410.27353 C 623.82938,410.57787 623.74017,411.16502 624.04484,411.57844 L 624.04484,411.57844 C 624.34953,411.99153 624.93635,412.08041 625.34976,411.77573 L 718.84478,342.85775 C 719.2582,342.55306 719.34675,341.96592 719.04241,341.55284 L 719.04241,341.55284 C 718.73772,341.13941 718.15024,341.05087 717.73715,341.35521 L 717.73715,341.35515 z"
           id="path2472"
           style="fill:#aa0000;fill-rule:evenodd;fill-opacity:1" />
        <path
           d="M 719.163,355.45673 L 635.11994,417.40811 C 634.70719,417.71246 634.61797,418.2996 634.92265,418.71303 L 634.92265,418.71303 C 635.22734,419.12612 635.81415,419.215 636.22757,418.91032 L 720.27063,356.95934 C 720.68406,356.65465 720.7726,356.06751 720.46826,355.65442 L 720.46826,355.65442 C 720.16357,355.24099 719.57609,355.15245 719.163,355.45679 L 719.163,355.45673 z"
           id="path2474"
           style="fill:#aa0000;fill-rule:evenodd;fill-opacity:1" />
        <path
           d="M 716.36328,363.85589 L 627.5961,429.28942 C 627.18334,429.59377 627.09413,430.18091 627.39881,430.59433 L 627.39881,430.59433 C 627.7035,431.00742 628.29031,431.0963 628.70373,430.79162 L 717.47091,365.3585 C 717.88434,365.05381 717.97288,364.46666 717.66854,364.05358 L 717.66854,364.05358 C 717.36385,363.64015 716.77637,363.55161 716.36328,363.85595 L 716.36328,363.85589 z"
           id="path2476"
           style="fill:#aa0000;fill-rule:evenodd;fill-opacity:1" />
      </g>
    </g>
  </g>
</svg>
