<?xml version="1.0" encoding="UTF-8" standalone="no"?>
<!-- Created with Inkscape (http://www.inkscape.org/) -->
<svg
   xmlns:dc="http://purl.org/dc/elements/1.1/"
   xmlns:cc="http://creativecommons.org/ns#"
   xmlns:rdf="http://www.w3.org/1999/02/22-rdf-syntax-ns#"
   xmlns:svg="http://www.w3.org/2000/svg"
   xmlns="http://www.w3.org/2000/svg"
   xmlns:sodipodi="http://sodipodi.sourceforge.net/DTD/sodipodi-0.dtd"
   xmlns:inkscape="http://www.inkscape.org/namespaces/inkscape"
   width="243"
   height="333"
   id="svg5151"
   sodipodi:version="0.32"
   inkscape:version="0.46"
   version="1.0"
   sodipodi:docname="spades-Q.svg"
   inkscape:output_extension="org.inkscape.output.svg.inkscape">
  <defs
     id="defs5153">
    <inkscape:perspective
       sodipodi:type="inkscape:persp3d"
       inkscape:vp_x="0 : 166.5 : 1"
       inkscape:vp_y="0 : 1000 : 0"
       inkscape:vp_z="243 : 166.5 : 1"
       inkscape:persp3d-origin="121.5 : 111 : 1"
       id="perspective9" />
    <inkscape:perspective
       id="perspective2733"
       inkscape:persp3d-origin="121.5 : 111 : 1"
       inkscape:vp_z="243 : 166.5 : 1"
       inkscape:vp_y="0 : 1000 : 0"
       inkscape:vp_x="0 : 166.5 : 1"
       sodipodi:type="inkscape:persp3d" />
    <inkscape:perspective
       id="perspective4678"
       inkscape:persp3d-origin="121.5 : 111 : 1"
       inkscape:vp_z="243 : 166.5 : 1"
       inkscape:vp_y="0 : 1000 : 0"
       inkscape:vp_x="0 : 166.5 : 1"
       sodipodi:type="inkscape:persp3d" />
  </defs>
  <sodipodi:namedview
     id="base"
     pagecolor="#ffffff"
     bordercolor="#666666"
     borderopacity="1.0"
     gridtolerance="10000"
     guidetolerance="10"
     objecttolerance="10"
     inkscape:pageopacity="0.0"
     inkscape:pageshadow="2"
     inkscape:zoom="1.29"
     inkscape:cx="193.49612"
     inkscape:cy="165.75032"
     inkscape:document-units="px"
     inkscape:current-layer="layer1"
     showgrid="false"
     units="in"
     inkscape:window-width="924"
     inkscape:window-height="702"
     inkscape:window-x="20"
     inkscape:window-y="42" />
  <metadata
     id="metadata5156">
    <rdf:RDF>
      <cc:Work
         rdf:about="">
        <dc:format>image/svg+xml</dc:format>
        <dc:type
           rdf:resource="http://purl.org/dc/dcmitype/StillImage" />
      </cc:Work>
    </rdf:RDF>
  </metadata>
  <g
     inkscape:label="Layer 1"
     inkscape:groupmode="layer"
     id="layer1">
    <g
       id="g3776"
       transform="translate(-2.261775,11.966949)">
      <g
         transform="translate(41.25859,41.860461)"
         id="g3718">
        <g
           id="g3706"
           transform="matrix(0.375,0,0,0.375,75.937502,104.06249)">
          <g
             style="fill-rule:evenodd"
             id="_51156864"
             transform="matrix(3.0605243,0,0,3.0605235,-190.80126,-1214.7462)">
            <path
               id="_51162776"
               d="M 89.5478,430.399 L 96.74107,430.399 L 96.74107,439.83536 C 93.34511,439.83536 90.56666,442.61381 90.56666,446.00977 L 81.1303,446.00977 L 81.1303,438.8165 C 81.1303,434.18687 84.91818,430.39899 89.54781,430.39899 L 89.5478,430.399 z M 107.3424,430.399 L 114.53567,430.399 C 119.1653,430.399 122.95318,434.18688 122.95318,438.81651 L 122.95318,446.00978 L 113.51682,446.00978 C 113.51682,442.61382 110.73837,439.83537 107.34241,439.83537 L 107.34241,430.39901 L 107.3424,430.399 z M 122.9532,456.6111 L 122.9532,463.80437 C 122.9532,468.434 119.16532,472.22188 114.53569,472.22188 L 107.34242,472.22188 L 107.34242,462.78552 C 110.73838,462.78552 113.51683,460.00707 113.51683,456.61111 L 122.95319,456.61111 L 122.9532,456.6111 z M 96.7411,472.2219 L 89.54783,472.2219 C 84.9182,472.2219 81.13032,468.43402 81.13032,463.80439 L 81.13032,456.61112 L 90.56668,456.61112 C 90.56668,460.00708 93.34513,462.78553 96.74109,462.78553 L 96.74109,472.22189 L 96.7411,472.2219 z"
               style="fill:#000000;fill-rule:evenodd" />
            <path
               id="_51161448"
               d="M 97.7212,460.664 L 101.05319,460.664 L 101.05319,457.18117 C 98.5579,456.76434 96.58888,454.79497 96.17205,452.29935 L 92.68821,452.29901 L 92.68821,455.631 C 92.68821,458.39935 94.95286,460.664 97.72121,460.664 L 97.7212,460.664 z M 103.03063,460.664 L 106.36228,460.664 C 109.13063,460.664 111.39528,458.39935 111.39528,455.631 L 111.39528,452.29935 L 107.91144,452.29935 C 107.49427,454.79396 105.52524,456.76332 103.03097,457.18083 L 103.03063,460.66399 L 103.03063,460.664 z M 111.39528,450.3219 L 111.39528,446.98991 C 111.39528,444.22156 109.13063,441.95691 106.36228,441.95691 L 103.03097,441.95691 L 103.03131,445.44109 C 105.52525,445.8586 107.49326,447.82796 107.91111,450.32156 L 111.39529,450.3219 L 111.39528,450.3219 z M 101.05348,441.95692 L 97.72116,441.95692 C 94.95281,441.95692 92.68816,444.22157 92.68816,446.98992 L 92.68816,450.32157 L 96.17234,450.32157 C 96.589848,447.82662 98.5582,445.8576 101.05315,445.44076 L 101.05349,441.95692 L 101.05348,441.95692 z"
               style="fill:#000000;fill-rule:evenodd" />
            <rect
               id="_51160480"
               x="97.896004"
               y="433.78299"
               width="8.2912502"
               height="6.08148"
               style="fill:#000000;fill-rule:evenodd" />
            <rect
               id="_51159512"
               transform="matrix(0,1,-1,0,119.569,447.164)"
               width="8.2912502"
               height="6.08148"
               x="0"
               y="0"
               style="fill:#000000;fill-rule:evenodd" />
            <rect
               id="_51158408"
               x="97.896301"
               y="462.75601"
               width="8.2912502"
               height="6.08148"
               style="fill:#000000;fill-rule:evenodd" />
            <rect
               id="_51156984"
               transform="matrix(0,-1,1,0,84.5145,455.456)"
               width="8.2912502"
               height="6.08148"
               x="0"
               y="0"
               style="fill:#000000;fill-rule:evenodd" />
          </g>
        </g>
        <g
           id="g3541"
           transform="translate(95.70643,-87.224806)">
          <path
             d="M -2.0416961,122.06999 L -0.62634817,122.06999 C -0.054351608,122.06999 0.41327744,122.53763 0.41327744,123.10962 L 0.41327744,158.87203 L 33.378967,158.87203 L 33.378967,123.10962 C 33.378967,122.53763 33.8466,122.06999 34.418593,122.06999 L 35.833941,122.06999 C 36.405933,122.06999 36.873566,122.53763 36.873566,123.10962 L 36.873566,158.87203 L 51.783869,158.87203 L 51.783869,123.10962 C 51.783869,122.53763 52.251502,122.06999 52.823495,122.06999 L 54.238843,122.06999 C 54.810835,122.06999 55.278468,122.53763 55.278468,123.10962 L 55.278468,158.87203 L 56.234262,158.87203 C 56.815354,158.87203 57.290386,159.34706 57.290386,159.92815 L 57.290386,161.78218 C 57.290386,162.36327 56.815354,162.8383 56.234262,162.8383 L -4.6471224,162.8383 C -5.2282091,162.8383 -5.7032464,162.36327 -5.7032464,161.78218 L -5.7032464,159.92815 C -5.7032464,159.34707 -5.2282101,158.87203 -4.6471224,158.87203 L -3.0812897,158.87203 L -3.0812897,123.10962 C -3.0812897,122.53763 -2.6136596,122.06999 -2.0416641,122.06999 L -2.0416961,122.06999 z"
             id="path26"
             style="fill:#000000;fill-rule:evenodd" />
          <path
             d="M 38.063577,184.7967 L 25.656723,197.18365 L 13.250268,184.7967 L 13.250268,184.0365 C 13.250268,183.26453 13.881518,182.63327 14.653498,182.63327 L 19.672864,182.63327 L 19.672864,169.88645 C 19.672864,169.05018 20.356633,168.3664 21.192911,168.3664 L 30.121304,168.3664 C 30.95758,168.3664 31.641352,169.05018 31.641352,169.88645 L 31.641352,182.63327 L 36.660378,182.63327 C 37.43235,182.63327 38.063607,183.26452 38.063607,184.0365 L 38.063607,184.7967 L 38.063577,184.7967 z"
             id="path35"
             style="fill:#000000;fill-rule:evenodd" />
          <g
             style="fill-rule:evenodd"
             id="_50964712"
             transform="matrix(0.9998996,0,0,0.9998996,-75.932977,-205.19515)">
            <path
               id="_50966440"
               d="M 87.3296,398.129 L 87.3296,398.129 C 88.290879,398.129 89.07707,398.9152 89.07707,399.87647 L 89.07707,425.62257 C 89.07707,426.58385 88.290875,427.37004 87.3296,427.37004 L 87.3296,427.37004 C 86.368321,427.37004 85.58213,426.58385 85.58213,425.62257 L 85.58213,399.87647 C 85.58213,398.91519 86.368325,398.129 87.3296,398.129 z"
               style="fill:#000000;fill-rule:evenodd" />
            <path
               id="_50964832"
               d="M 115.872,398.129 L 115.872,398.129 C 116.83328,398.129 117.61947,398.9152 117.61947,399.87647 L 117.61947,425.62257 C 117.61947,426.58385 116.83328,427.37004 115.872,427.37004 L 115.872,427.37004 C 114.91072,427.37004 114.12453,426.58385 114.12453,425.62257 L 114.12453,399.87647 C 114.12453,398.91519 114.91073,398.129 115.872,398.129 z"
               style="fill:#000000;fill-rule:evenodd" />
          </g>
          <path
             d="M 25.657823,203.14385 L 25.657823,203.14385 C 26.619006,203.14385 27.405117,203.93064 27.405117,204.89115 L 27.405117,218.05413 C 27.405117,219.01464 26.619006,219.80142 25.657823,219.80142 L 25.657823,219.80142 C 24.696639,219.80142 23.910528,219.01531 23.910528,218.05413 L 23.910528,204.89115 C 23.910528,203.92996 24.696649,203.14385 25.657823,203.14385 z"
             id="path40"
             style="fill:#000000;fill-rule:evenodd" />
        </g>
        <g
           id="g4696"
           inkscape:label="Layer 1"
           transform="matrix(0.2065905,0,0,0.2065905,117,161.17081)">
          <text
             id="text4698"
             y="47.285156"
             x="21.708984"
             style="font-size:60px;font-style:normal;font-weight:normal;fill:#000000;fill-opacity:1;stroke:none;stroke-width:1px;stroke-linecap:butt;stroke-linejoin:miter;stroke-opacity:1;font-family:Century"
             xml:space="preserve"><tspan
               style="font-size:60px;font-style:normal;font-variant:normal;font-weight:normal;font-stretch:normal;text-align:center;line-height:89.99999762%;writing-mode:lr-tb;text-anchor:middle;fill:#000000;fill-opacity:1;font-family:Meiryo;-inkscape-font-specification:Meiryo"
               id="tspan4700"
               y="47.285156"
               x="21.708984"
               sodipodi:role="line">♠</tspan></text>
        </g>
      </g>
      <g
         id="g3738"
         transform="matrix(-1,0,0,-1,206.26496,267.20564)">
        <g
           transform="matrix(0.375,0,0,0.375,75.937502,104.06249)"
           id="g3740">
          <g
             transform="matrix(3.0605243,0,0,3.0605235,-190.80126,-1214.7462)"
             id="g3742"
             style="fill-rule:evenodd">
            <path
               style="fill:#000000;fill-rule:evenodd"
               d="M 89.5478,430.399 L 96.74107,430.399 L 96.74107,439.83536 C 93.34511,439.83536 90.56666,442.61381 90.56666,446.00977 L 81.1303,446.00977 L 81.1303,438.8165 C 81.1303,434.18687 84.91818,430.39899 89.54781,430.39899 L 89.5478,430.399 z M 107.3424,430.399 L 114.53567,430.399 C 119.1653,430.399 122.95318,434.18688 122.95318,438.81651 L 122.95318,446.00978 L 113.51682,446.00978 C 113.51682,442.61382 110.73837,439.83537 107.34241,439.83537 L 107.34241,430.39901 L 107.3424,430.399 z M 122.9532,456.6111 L 122.9532,463.80437 C 122.9532,468.434 119.16532,472.22188 114.53569,472.22188 L 107.34242,472.22188 L 107.34242,462.78552 C 110.73838,462.78552 113.51683,460.00707 113.51683,456.61111 L 122.95319,456.61111 L 122.9532,456.6111 z M 96.7411,472.2219 L 89.54783,472.2219 C 84.9182,472.2219 81.13032,468.43402 81.13032,463.80439 L 81.13032,456.61112 L 90.56668,456.61112 C 90.56668,460.00708 93.34513,462.78553 96.74109,462.78553 L 96.74109,472.22189 L 96.7411,472.2219 z"
               id="path3744" />
            <path
               style="fill:#000000;fill-rule:evenodd"
               d="M 97.7212,460.664 L 101.05319,460.664 L 101.05319,457.18117 C 98.5579,456.76434 96.58888,454.79497 96.17205,452.29935 L 92.68821,452.29901 L 92.68821,455.631 C 92.68821,458.39935 94.95286,460.664 97.72121,460.664 L 97.7212,460.664 z M 103.03063,460.664 L 106.36228,460.664 C 109.13063,460.664 111.39528,458.39935 111.39528,455.631 L 111.39528,452.29935 L 107.91144,452.29935 C 107.49427,454.79396 105.52524,456.76332 103.03097,457.18083 L 103.03063,460.66399 L 103.03063,460.664 z M 111.39528,450.3219 L 111.39528,446.98991 C 111.39528,444.22156 109.13063,441.95691 106.36228,441.95691 L 103.03097,441.95691 L 103.03131,445.44109 C 105.52525,445.8586 107.49326,447.82796 107.91111,450.32156 L 111.39529,450.3219 L 111.39528,450.3219 z M 101.05348,441.95692 L 97.72116,441.95692 C 94.95281,441.95692 92.68816,444.22157 92.68816,446.98992 L 92.68816,450.32157 L 96.17234,450.32157 C 96.589848,447.82662 98.5582,445.8576 101.05315,445.44076 L 101.05349,441.95692 L 101.05348,441.95692 z"
               id="path3746" />
            <rect
               style="fill:#000000;fill-rule:evenodd"
               height="6.08148"
               width="8.2912502"
               y="433.78299"
               x="97.896004"
               id="rect3748" />
            <rect
               style="fill:#000000;fill-rule:evenodd"
               y="0"
               x="0"
               height="6.08148"
               width="8.2912502"
               transform="matrix(0,1,-1,0,119.569,447.164)"
               id="rect3750" />
            <rect
               style="fill:#000000;fill-rule:evenodd"
               height="6.08148"
               width="8.2912502"
               y="462.75601"
               x="97.896301"
               id="rect3752" />
            <rect
               style="fill:#000000;fill-rule:evenodd"
               y="0"
               x="0"
               height="6.08148"
               width="8.2912502"
               transform="matrix(0,-1,1,0,84.5145,455.456)"
               id="rect3754" />
          </g>
        </g>
        <g
           transform="translate(95.70643,-87.224806)"
           id="g3762">
          <path
             style="fill:#000000;fill-rule:evenodd"
             id="path3764"
             d="M -2.0416961,122.06999 L -0.62634817,122.06999 C -0.054351608,122.06999 0.41327744,122.53763 0.41327744,123.10962 L 0.41327744,158.87203 L 33.378967,158.87203 L 33.378967,123.10962 C 33.378967,122.53763 33.8466,122.06999 34.418593,122.06999 L 35.833941,122.06999 C 36.405933,122.06999 36.873566,122.53763 36.873566,123.10962 L 36.873566,158.87203 L 51.783869,158.87203 L 51.783869,123.10962 C 51.783869,122.53763 52.251502,122.06999 52.823495,122.06999 L 54.238843,122.06999 C 54.810835,122.06999 55.278468,122.53763 55.278468,123.10962 L 55.278468,158.87203 L 56.234262,158.87203 C 56.815354,158.87203 57.290386,159.34706 57.290386,159.92815 L 57.290386,161.78218 C 57.290386,162.36327 56.815354,162.8383 56.234262,162.8383 L -4.6471224,162.8383 C -5.2282091,162.8383 -5.7032464,162.36327 -5.7032464,161.78218 L -5.7032464,159.92815 C -5.7032464,159.34707 -5.2282101,158.87203 -4.6471224,158.87203 L -3.0812897,158.87203 L -3.0812897,123.10962 C -3.0812897,122.53763 -2.6136596,122.06999 -2.0416641,122.06999 L -2.0416961,122.06999 z" />
          <path
             style="fill:#000000;fill-rule:evenodd"
             id="path3766"
             d="M 38.063577,184.7967 L 25.656723,197.18365 L 13.250268,184.7967 L 13.250268,184.0365 C 13.250268,183.26453 13.881518,182.63327 14.653498,182.63327 L 19.672864,182.63327 L 19.672864,169.88645 C 19.672864,169.05018 20.356633,168.3664 21.192911,168.3664 L 30.121304,168.3664 C 30.95758,168.3664 31.641352,169.05018 31.641352,169.88645 L 31.641352,182.63327 L 36.660378,182.63327 C 37.43235,182.63327 38.063607,183.26452 38.063607,184.0365 L 38.063607,184.7967 L 38.063577,184.7967 z" />
          <g
             transform="matrix(0.9998996,0,0,0.9998996,-75.932977,-205.19515)"
             id="g3768"
             style="fill-rule:evenodd">
            <path
               style="fill:#000000;fill-rule:evenodd"
               d="M 87.3296,398.129 L 87.3296,398.129 C 88.290879,398.129 89.07707,398.9152 89.07707,399.87647 L 89.07707,425.62257 C 89.07707,426.58385 88.290875,427.37004 87.3296,427.37004 L 87.3296,427.37004 C 86.368321,427.37004 85.58213,426.58385 85.58213,425.62257 L 85.58213,399.87647 C 85.58213,398.91519 86.368325,398.129 87.3296,398.129 z"
               id="path3770" />
            <path
               style="fill:#000000;fill-rule:evenodd"
               d="M 115.872,398.129 L 115.872,398.129 C 116.83328,398.129 117.61947,398.9152 117.61947,399.87647 L 117.61947,425.62257 C 117.61947,426.58385 116.83328,427.37004 115.872,427.37004 L 115.872,427.37004 C 114.91072,427.37004 114.12453,426.58385 114.12453,425.62257 L 114.12453,399.87647 C 114.12453,398.91519 114.91073,398.129 115.872,398.129 z"
               id="path3772" />
          </g>
          <path
             style="fill:#000000;fill-rule:evenodd"
             id="path3774"
             d="M 25.657823,203.14385 L 25.657823,203.14385 C 26.619006,203.14385 27.405117,203.93064 27.405117,204.89115 L 27.405117,218.05413 C 27.405117,219.01464 26.619006,219.80142 25.657823,219.80142 L 25.657823,219.80142 C 24.696639,219.80142 23.910528,219.01531 23.910528,218.05413 L 23.910528,204.89115 C 23.910528,203.92996 24.696649,203.14385 25.657823,203.14385 z" />
        </g>
        <g
           id="g4680"
           inkscape:label="Layer 1"
           transform="matrix(0.2065905,0,0,0.2065905,117,161.17081)">
          <text
             id="spade1"
             y="47.285156"
             x="21.708984"
             style="font-size:60px;font-style:normal;font-weight:normal;fill:#000000;fill-opacity:1;stroke:none;stroke-width:1px;stroke-linecap:butt;stroke-linejoin:miter;stroke-opacity:1;font-family:Century"
             xml:space="preserve"><tspan
               style="font-size:60px;font-style:normal;font-variant:normal;font-weight:normal;font-stretch:normal;text-align:center;line-height:89.99999762%;writing-mode:lr-tb;text-anchor:middle;fill:#000000;fill-opacity:1;font-family:Meiryo;-inkscape-font-specification:Meiryo"
               id="spadetext1"
               y="47.285156"
               x="21.708984"
               sodipodi:role="line">♠</tspan></text>
        </g>
      </g>
    </g>
  </g>
</svg>
